<svg class="main-svg" xmlns="http://www.w3.org/2000/svg" xmlns:xlink="http://www.w3.org/1999/xlink" width="800" height="600" style=""><rect x="0" y="0" width="800" height="600" style="fill: rgb(255, 255, 255); fill-opacity: 1;"/><defs id="defs-3cb0b7"><g class="clips"><clipPath class="axesclip" id="clip3cb0b7x"><rect x="100" y="0" width="548" height="600"/></clipPath><clipPath class="axesclip" id="clip3cb0b7y"><rect x="0" y="100" width="800" height="170"/></clipPath><clipPath class="axesclip" id="clip3cb0b7xy"><rect x="100" y="100" width="548" height="170"/></clipPath><clipPath class="plotclip" id="clip3cb0b7xyplot"><rect width="548" height="170"/></clipPath></g></defs><g class="layer-below"><g class="imagelayer"/><g class="shapelayer"/></g><g class="subplot xy"><rect style="stroke-width: 0; fill: rgb(255, 255, 255); fill-opacity: 1;" x="96" y="96" width="556" height="178"/><g class="layer-subplot"><g class="shapelayer"/><g class="imagelayer"/></g><g transform="translate(100,100)"><path class="ygrid crisp" d="M0,0h548" transform="translate(0,118.15)" style="stroke: rgb(238, 238, 238); stroke-opacity: 1; stroke-width: 1px;"/><path class="ygrid crisp" d="M0,0h548" transform="translate(0,84.55)" style="stroke: rgb(238, 238, 238); stroke-opacity: 1; stroke-width: 1px;"/><path class="ygrid crisp" d="M0,0h548" transform="translate(0,50.96)" style="stroke: rgb(238, 238, 238); stroke-opacity: 1; stroke-width: 1px;"/><path class="ygrid crisp" d="M0,0h548" transform="translate(0,17.37)" style="stroke: rgb(238, 238, 238); stroke-opacity: 1; stroke-width: 1px;"/></g><g/><g transform="translate(100,100)"><path class="yzl zl crisp" d="M0,0h548" transform="translate(0,151.74)" style="stroke: rgb(68, 68, 68); stroke-opacity: 1; stroke-width: 1px;"/></g><g/><g transform="translate(100, 100)" clip-path="url(#clip3cb0b7xyplot)"><g class="imagelayer"/><g class="maplayer"/><g class="barlayer"><g class="trace bars" style="opacity: 1;"><g class="points"><path d="M2.74,151.74V130.35H24.66V151.74Z" style="fill: rgb(245, 186, 144); fill-opacity: 1;"/><path d="M30.14,151.74V130.35H52.06V151.74Z" style="fill: rgb(245, 186, 144); fill-opacity: 1;"/><path d="M57.54,151.74V95.85H79.46V151.74Z" style="fill: rgb(239, 201, 171); fill-opacity: 1;"/><path d="M84.94,151.74V109.21H106.86V151.74Z" style="fill: rgb(225, 215, 207); fill-opacity: 1;"/><path d="M112.34,151.74V94.03H134.26V151.74Z" style="fill: rgb(245, 183, 140); fill-opacity: 1;"/><path d="M139.74,151.74V67.44H161.66V151.74Z" style="fill: rgb(241, 199, 168); fill-opacity: 1;"/><path d="M167.14,151.74V95.85H189.06V151.74Z" style="fill: rgb(239, 201, 171); fill-opacity: 1;"/><path d="M194.54,151.74V137.05H216.46V151.74Z" style="fill: rgb(178, 10, 28); fill-opacity: 1;"/><path d="M221.94,151.74V108.04H243.86V151.74Z" style="fill: rgb(245, 174, 126); fill-opacity: 1;"/><path d="M249.34,151.74V137.05H271.26V151.74Z" style="fill: rgb(178, 10, 28); fill-opacity: 1;"/><path d="M276.74,151.74V104.4H298.66V151.74Z" style="fill: rgb(220, 220, 220); fill-opacity: 1;"/><path d="M304.14,151.74V109.21H326.06V151.74Z" style="fill: rgb(225, 215, 207); fill-opacity: 1;"/><path d="M331.54,151.74V104.4H353.46V151.74Z" style="fill: rgb(220, 220, 220); fill-opacity: 1;"/><path d="M358.94,151.74V109.37H380.86V151.74Z" style="fill: rgb(221, 219, 218); fill-opacity: 1;"/><path d="M386.34,151.74V108.04H408.26V151.74Z" style="fill: rgb(245, 174, 126); fill-opacity: 1;"/><path d="M413.74,151.74V128.78H435.66V151.74Z" style="fill: rgb(225, 215, 208); fill-opacity: 1;"/><path d="M441.14,151.74V94.03H463.06V151.74Z" style="fill: rgb(245, 183, 140); fill-opacity: 1;"/><path d="M468.54,151.74V67.44H490.46V151.74Z" style="fill: rgb(241, 199, 168); fill-opacity: 1;"/><path d="M495.94,151.74V109.37H517.86V151.74Z" style="fill: rgb(221, 219, 218); fill-opacity: 1;"/><path d="M523.34,151.74V128.78H545.26V151.74Z" style="fill: rgb(225, 215, 208); fill-opacity: 1;"/></g><g class="errorbar"><path class="yerror" d="M9.7,101.1h8m-4,0V159.59m-4,0h8" style="stroke-width: 2px; stroke: rgb(68, 68, 68); stroke-opacity: 1;"/></g><g class="errorbar"><path class="yerror" d="M37.1,101.1h8m-4,0V159.59m-4,0h8" style="stroke-width: 2px; stroke: rgb(68, 68, 68); stroke-opacity: 1;"/></g><g class="errorbar"><path class="yerror" d="M64.5,52.11h8m-4,0V139.59m-4,0h8" style="stroke-width: 2px; stroke: rgb(68, 68, 68); stroke-opacity: 1;"/></g><g class="errorbar"><path class="yerror" d="M91.9,70.35h8m-4,0V148.07m-4,0h8" style="stroke-width: 2px; stroke: rgb(68, 68, 68); stroke-opacity: 1;"/></g><g class="errorbar"><path class="yerror" d="M119.3,43.18h8m-4,0V144.87m-4,0h8" style="stroke-width: 2px; stroke: rgb(68, 68, 68); stroke-opacity: 1;"/></g><g class="errorbar"><path class="yerror" d="M146.7,8.5h8m-4,0V126.37m-4,0h8" style="stroke-width: 2px; stroke: rgb(68, 68, 68); stroke-opacity: 1;"/></g><g class="errorbar"><path class="yerror" d="M174.1,52.11h8m-4,0V139.59m-4,0h8" style="stroke-width: 2px; stroke: rgb(68, 68, 68); stroke-opacity: 1;"/></g><g class="errorbar"><path class="yerror" d="M201.5,112.59h8m-4,0V161.5m-4,0h8" style="stroke-width: 2px; stroke: rgb(68, 68, 68); stroke-opacity: 1;"/></g><g class="errorbar"><path class="yerror" d="M228.9,66.45h8m-4,0V149.63m-4,0h8" style="stroke-width: 2px; stroke: rgb(68, 68, 68); stroke-opacity: 1;"/></g><g class="errorbar"><path class="yerror" d="M256.3,112.59h8m-4,0V161.5m-4,0h8" style="stroke-width: 2px; stroke: rgb(68, 68, 68); stroke-opacity: 1;"/></g><g class="errorbar"><path class="yerror" d="M283.7,65.59h8m-4,0V143.22m-4,0h8" style="stroke-width: 2px; stroke: rgb(68, 68, 68); stroke-opacity: 1;"/></g><g class="errorbar"><path class="yerror" d="M311.1,70.35h8m-4,0V148.07m-4,0h8" style="stroke-width: 2px; stroke: rgb(68, 68, 68); stroke-opacity: 1;"/></g><g class="errorbar"><path class="yerror" d="M338.5,65.59h8m-4,0V143.22m-4,0h8" style="stroke-width: 2px; stroke: rgb(68, 68, 68); stroke-opacity: 1;"/></g><g class="errorbar"><path class="yerror" d="M365.9,72.62h8m-4,0V146.11m-4,0h8" style="stroke-width: 2px; stroke: rgb(68, 68, 68); stroke-opacity: 1;"/></g><g class="errorbar"><path class="yerror" d="M393.3,66.45h8m-4,0V149.63m-4,0h8" style="stroke-width: 2px; stroke: rgb(68, 68, 68); stroke-opacity: 1;"/></g><g class="errorbar"><path class="yerror" d="M420.7,98.27h8m-4,0V159.28m-4,0h8" style="stroke-width: 2px; stroke: rgb(68, 68, 68); stroke-opacity: 1;"/></g><g class="errorbar"><path class="yerror" d="M448.1,43.18h8m-4,0V144.87m-4,0h8" style="stroke-width: 2px; stroke: rgb(68, 68, 68); stroke-opacity: 1;"/></g><g class="errorbar"><path class="yerror" d="M475.5,8.5h8m-4,0V126.37m-4,0h8" style="stroke-width: 2px; stroke: rgb(68, 68, 68); stroke-opacity: 1;"/></g><g class="errorbar"><path class="yerror" d="M502.9,72.62h8m-4,0V146.11m-4,0h8" style="stroke-width: 2px; stroke: rgb(68, 68, 68); stroke-opacity: 1;"/></g><g class="errorbar"><path class="yerror" d="M530.3,98.27h8m-4,0V159.28m-4,0h8" style="stroke-width: 2px; stroke: rgb(68, 68, 68); stroke-opacity: 1;"/></g></g></g><g class="boxlayer"/><g class="scatterlayer"/></g><g/><path style="fill: none; stroke-width: 1px; stroke: rgb(0, 0, 0); stroke-opacity: 0;" class="crisp" transform="translate(100,100)" d="M-5,174.5h558"/><path style="fill: none; stroke: rgb(0, 0, 0); stroke-opacity: 0;" class="crisp" transform="translate(100,100)" d="M-4.5,-5v179" stroke-width="1px"/><g/><g transform="translate(100,100)"><g class="xtick" data-bb="349"><text text-anchor="start" x="0" y="194" style="font-family: freemono; font-size: 18px; fill: rgb(68, 68, 68); fill-opacity: 1; visibility: visible; white-space: pre;" transform="translate(13.7,0) rotate(90,0,185)" data-bb="328">38-0f-66 3f-fe-87</text></g><g class="xtick" data-bb="350"><text text-anchor="start" x="0" y="194" style="font-family: freemono; font-size: 18px; fill: rgb(68, 68, 68); fill-opacity: 1; visibility: visible; white-space: pre;" transform="translate(41.1,0) rotate(90,0,185)" data-bb="329">3f-fe-87 38-0f-66</text></g><g class="xtick" data-bb="351"><text text-anchor="start" x="0" y="194" style="font-family: freemono; font-size: 18px; fill: rgb(68, 68, 68); fill-opacity: 1; visibility: visible; white-space: pre;" transform="translate(68.5,0) rotate(90,0,185)" data-bb="330">3f-fe-87 3f-fe-88</text></g><g class="xtick" data-bb="352"><text text-anchor="start" x="0" y="194" style="font-family: freemono; font-size: 18px; fill: rgb(68, 68, 68); fill-opacity: 1; visibility: visible; white-space: pre;" transform="translate(95.9,0) rotate(90,0,185)" data-bb="331">3f-fe-87 60-02-1b</text></g><g class="xtick" data-bb="353"><text text-anchor="start" x="0" y="194" style="font-family: freemono; font-size: 18px; fill: rgb(68, 68, 68); fill-opacity: 1; visibility: visible; white-space: pre;" transform="translate(123.3,0) rotate(90,0,185)" data-bb="332">3f-fe-87 60-05-78</text></g><g class="xtick" data-bb="354"><text text-anchor="start" x="0" y="194" style="font-family: freemono; font-size: 18px; fill: rgb(68, 68, 68); fill-opacity: 1; visibility: visible; white-space: pre;" transform="translate(150.7,0) rotate(90,0,185)" data-bb="333">3f-fe-87 60-06-27</text></g><g class="xtick" data-bb="355"><text text-anchor="start" x="0" y="194" style="font-family: freemono; font-size: 18px; fill: rgb(68, 68, 68); fill-opacity: 1; visibility: visible; white-space: pre;" transform="translate(178.1,0) rotate(90,0,185)" data-bb="334">3f-fe-88 3f-fe-87</text></g><g class="xtick" data-bb="356"><text text-anchor="start" x="0" y="194" style="font-family: freemono; font-size: 18px; fill: rgb(68, 68, 68); fill-opacity: 1; visibility: visible; white-space: pre;" transform="translate(205.5,0) rotate(90,0,185)" data-bb="335">3f-fe-88 60-01-f8</text></g><g class="xtick" data-bb="357"><text text-anchor="start" x="0" y="194" style="font-family: freemono; font-size: 18px; fill: rgb(68, 68, 68); fill-opacity: 1; visibility: visible; white-space: pre;" transform="translate(232.9,0) rotate(90,0,185)" data-bb="336">3f-fe-88 60-03-82</text></g><g class="xtick" data-bb="358"><text text-anchor="start" x="0" y="194" style="font-family: freemono; font-size: 18px; fill: rgb(68, 68, 68); fill-opacity: 1; visibility: visible; white-space: pre;" transform="translate(260.3,0) rotate(90,0,185)" data-bb="337">60-01-f8 3f-fe-88</text></g><g class="xtick" data-bb="359"><text text-anchor="start" x="0" y="194" style="font-family: freemono; font-size: 18px; fill: rgb(68, 68, 68); fill-opacity: 1; visibility: visible; white-space: pre;" transform="translate(287.7,0) rotate(90,0,185)" data-bb="338">60-01-f8 60-02-1b</text></g><g class="xtick" data-bb="360"><text text-anchor="start" x="0" y="194" style="font-family: freemono; font-size: 18px; fill: rgb(68, 68, 68); fill-opacity: 1; visibility: visible; white-space: pre;" transform="translate(315.1,0) rotate(90,0,185)" data-bb="339">60-02-1b 3f-fe-87</text></g><g class="xtick" data-bb="361"><text text-anchor="start" x="0" y="194" style="font-family: freemono; font-size: 18px; fill: rgb(68, 68, 68); fill-opacity: 1; visibility: visible; white-space: pre;" transform="translate(342.5,0) rotate(90,0,185)" data-bb="340">60-02-1b 60-01-f8</text></g><g class="xtick" data-bb="362"><text text-anchor="start" x="0" y="194" style="font-family: freemono; font-size: 18px; fill: rgb(68, 68, 68); fill-opacity: 1; visibility: visible; white-space: pre;" transform="translate(369.9,0) rotate(90,0,185)" data-bb="341">60-02-1b 60-08-d5</text></g><g class="xtick" data-bb="363"><text text-anchor="start" x="0" y="194" style="font-family: freemono; font-size: 18px; fill: rgb(68, 68, 68); fill-opacity: 1; visibility: visible; white-space: pre;" transform="translate(397.3,0) rotate(90,0,185)" data-bb="342">60-03-82 3f-fe-88</text></g><g class="xtick" data-bb="364"><text text-anchor="start" x="0" y="194" style="font-family: freemono; font-size: 18px; fill: rgb(68, 68, 68); fill-opacity: 1; visibility: visible; white-space: pre;" transform="translate(424.7,0) rotate(90,0,185)" data-bb="343">60-05-69 60-08-d5</text></g><g class="xtick" data-bb="365"><text text-anchor="start" x="0" y="194" style="font-family: freemono; font-size: 18px; fill: rgb(68, 68, 68); fill-opacity: 1; visibility: visible; white-space: pre;" transform="translate(452.1,0) rotate(90,0,185)" data-bb="344">60-05-78 3f-fe-87</text></g><g class="xtick" data-bb="366"><text text-anchor="start" x="0" y="194" style="font-family: freemono; font-size: 18px; fill: rgb(68, 68, 68); fill-opacity: 1; visibility: visible; white-space: pre;" transform="translate(479.5,0) rotate(90,0,185)" data-bb="345">60-06-27 3f-fe-87</text></g><g class="xtick" data-bb="367"><text text-anchor="start" x="0" y="194" style="font-family: freemono; font-size: 18px; fill: rgb(68, 68, 68); fill-opacity: 1; visibility: visible; white-space: pre;" transform="translate(506.9,0) rotate(90,0,185)" data-bb="346">60-08-d5 60-02-1b</text></g><g class="xtick" data-bb="368"><text text-anchor="start" x="0" y="194" style="font-family: freemono; font-size: 18px; fill: rgb(68, 68, 68); fill-opacity: 1; visibility: visible; white-space: pre;" transform="translate(534.3,0) rotate(90,0,185)" data-bb="347">60-08-d5 60-05-69</text></g></g><g transform="translate(100,100)"><g class="ytick" data-bb="370"><text text-anchor="end" x="-6" y="9" style="font-family: TOBESTRIPPEDOpen SansTOBESTRIPPED,verdana,arial,sans-serif; font-size: 18px; fill: rgb(68, 68, 68); fill-opacity: 1; visibility: visible; white-space: pre;" transform="translate(0,151.74)">0</text></g><g class="ytick" data-bb="371"><text text-anchor="end" x="-6" y="9" style="font-family: TOBESTRIPPEDOpen SansTOBESTRIPPED,verdana,arial,sans-serif; font-size: 18px; fill: rgb(68, 68, 68); fill-opacity: 1; visibility: visible; white-space: pre;" transform="translate(0,118.15)">1</text></g><g class="ytick" data-bb="372"><text text-anchor="end" x="-6" y="9" style="font-family: TOBESTRIPPEDOpen SansTOBESTRIPPED,verdana,arial,sans-serif; font-size: 18px; fill: rgb(68, 68, 68); fill-opacity: 1; visibility: visible; white-space: pre;" transform="translate(0,84.55)">2</text></g><g class="ytick" data-bb="373"><text text-anchor="end" x="-6" y="9" style="font-family: TOBESTRIPPEDOpen SansTOBESTRIPPED,verdana,arial,sans-serif; font-size: 18px; fill: rgb(68, 68, 68); fill-opacity: 1; visibility: visible; white-space: pre;" transform="translate(0,50.96)">3</text></g><g class="ytick" data-bb="374"><text text-anchor="end" x="-6" y="9" style="font-family: TOBESTRIPPEDOpen SansTOBESTRIPPED,verdana,arial,sans-serif; font-size: 18px; fill: rgb(68, 68, 68); fill-opacity: 1; visibility: visible; white-space: pre;" transform="translate(0,17.37)">4</text></g></g><g/></g><g class="ternarylayer"/><g class="layer-above"><g class="imagelayer"/><g class="shapelayer"/></g><g class="pielayer"/><g class="glimages"/><g class="geoimages"/><text class="js-plot-link-container" style="font-family: TOBESTRIPPEDOpen SansTOBESTRIPPED,Arial,sans-serif; font-size: 12px; fill: rgb(68, 68, 68); pointer-events: all;" y="591" text-anchor="end" x="793"><tspan class="js-link-to-tool"/><tspan class="js-link-spacer"/><tspan class="js-sourcelinks"/></text><g class="infolayer"><g class="g-gtitle"/><g class="g-xtitle" data-bb="348" transform="translate(0,152)"><text class="xtitle" style="font-family: TOBESTRIPPEDOpen SansTOBESTRIPPED,verdana,arial,sans-serif; font-size: 22px; fill: rgb(68, 68, 68); opacity: 1; font-weight: normal; white-space: pre; visibility: visible;" x="374" y="346" text-anchor="middle">link</text></g><g class="g-ytitle" data-bb="369"><text class="ytitle" transform="rotate(-90,46,185) translate(0, 0)" style="font-family: TOBESTRIPPEDOpen SansTOBESTRIPPED,verdana,arial,sans-serif; font-size: 22px; fill: rgb(68, 68, 68); opacity: 1; font-weight: normal; white-space: pre; visibility: visible;" x="46" y="185" text-anchor="middle">RSSI difference (dB)</text></g><g class="cbd7cf46" transform="translate(100,100)"><rect class="cbbg" x="558.5" y="-0.5" width="128.96685791015625" height="171" style="fill: rgb(0, 0, 0); fill-opacity: 0; stroke: rgb(68, 68, 68); stroke-opacity: 1; stroke-width: 0;"/><g class="cbfills" transform="translate(0,39)"><rect class="cbfill" style="stroke: none;" x="569" width="30" y="119" height="2" fill="#dcdcdb"/><rect class="cbfill" style="stroke: none;" x="569" width="30" y="119" height="2" fill="#dddbda"/><rect class="cbfill" style="stroke: none;" x="569" width="30" y="118" height="2" fill="#dddbd8"/><rect class="cbfill" style="stroke: none;" x="569" width="30" y="118" height="2" fill="#dedad7"/><rect class="cbfill" style="stroke: none;" x="569" width="30" y="117" height="2" fill="#dedad6"/><rect class="cbfill" style="stroke: none;" x="569" width="30" y="117" height="2" fill="#dfd9d5"/><rect class="cbfill" style="stroke: none;" x="569" width="30" y="116" height="2" fill="#dfd9d3"/><rect class="cbfill" style="stroke: none;" x="569" width="30" y="116" height="2" fill="#e0d8d2"/><rect class="cbfill" style="stroke: none;" x="569" width="30" y="115" height="2" fill="#e0d8d1"/><rect class="cbfill" style="stroke: none;" x="569" width="30" y="115" height="2" fill="#e1d7d0"/><rect class="cbfill" style="stroke: none;" x="569" width="30" y="115" height="2" fill="#e1d7ce"/><rect class="cbfill" style="stroke: none;" x="569" width="30" y="114" height="2" fill="#e2d6cd"/><rect class="cbfill" style="stroke: none;" x="569" width="30" y="114" height="2" fill="#e2d6cc"/><rect class="cbfill" style="stroke: none;" x="569" width="30" y="113" height="2" fill="#e3d5cb"/><rect class="cbfill" style="stroke: none;" x="569" width="30" y="113" height="2" fill="#e3d5c9"/><rect class="cbfill" style="stroke: none;" x="569" width="30" y="112" height="2" fill="#e4d4c8"/><rect class="cbfill" style="stroke: none;" x="569" width="30" y="112" height="2" fill="#e4d4c7"/><rect class="cbfill" style="stroke: none;" x="569" width="30" y="111" height="2" fill="#e5d3c6"/><rect class="cbfill" style="stroke: none;" x="569" width="30" y="111" height="2" fill="#e5d3c4"/><rect class="cbfill" style="stroke: none;" x="569" width="30" y="110" height="2" fill="#e6d2c3"/><rect class="cbfill" style="stroke: none;" x="569" width="30" y="110" height="2" fill="#e6d2c2"/><rect class="cbfill" style="stroke: none;" x="569" width="30" y="109" height="2" fill="#e7d1c1"/><rect class="cbfill" style="stroke: none;" x="569" width="30" y="109" height="2" fill="#e7d1bf"/><rect class="cbfill" style="stroke: none;" x="569" width="30" y="108" height="2" fill="#e8d0be"/><rect class="cbfill" style="stroke: none;" x="569" width="30" y="108" height="2" fill="#e8d0bd"/><rect class="cbfill" style="stroke: none;" x="569" width="30" y="107" height="2" fill="#e9cfbc"/><rect class="cbfill" style="stroke: none;" x="569" width="30" y="107" height="2" fill="#e9cfbb"/><rect class="cbfill" style="stroke: none;" x="569" width="30" y="106" height="2" fill="#eaceb9"/><rect class="cbfill" style="stroke: none;" x="569" width="30" y="106" height="2" fill="#eaceb8"/><rect class="cbfill" style="stroke: none;" x="569" width="30" y="105" height="2" fill="#ebcdb7"/><rect class="cbfill" style="stroke: none;" x="569" width="30" y="105" height="2" fill="#ebcdb6"/><rect class="cbfill" style="stroke: none;" x="569" width="30" y="105" height="2" fill="#ecccb4"/><rect class="cbfill" style="stroke: none;" x="569" width="30" y="104" height="2" fill="#ecccb3"/><rect class="cbfill" style="stroke: none;" x="569" width="30" y="104" height="2" fill="#edcbb2"/><rect class="cbfill" style="stroke: none;" x="569" width="30" y="103" height="2" fill="#edcbb1"/><rect class="cbfill" style="stroke: none;" x="569" width="30" y="103" height="2" fill="#eecaaf"/><rect class="cbfill" style="stroke: none;" x="569" width="30" y="102" height="2" fill="#eecaae"/><rect class="cbfill" style="stroke: none;" x="569" width="30" y="102" height="2" fill="#efc9ad"/><rect class="cbfill" style="stroke: none;" x="569" width="30" y="101" height="2" fill="#efc9ac"/><rect class="cbfill" style="stroke: none;" x="569" width="30" y="101" height="2" fill="#f0c8aa"/><rect class="cbfill" style="stroke: none;" x="569" width="30" y="100" height="2" fill="#f0c8a9"/><rect class="cbfill" style="stroke: none;" x="569" width="30" y="100" height="2" fill="#f1c7a8"/><rect class="cbfill" style="stroke: none;" x="569" width="30" y="99" height="2" fill="#f1c7a7"/><rect class="cbfill" style="stroke: none;" x="569" width="30" y="99" height="2" fill="#f2c6a5"/><rect class="cbfill" style="stroke: none;" x="569" width="30" y="98" height="2" fill="#f2c6a4"/><rect class="cbfill" style="stroke: none;" x="569" width="30" y="98" height="2" fill="#f3c5a3"/><rect class="cbfill" style="stroke: none;" x="569" width="30" y="97" height="2" fill="#f3c5a2"/><rect class="cbfill" style="stroke: none;" x="569" width="30" y="97" height="2" fill="#f4c4a0"/><rect class="cbfill" style="stroke: none;" x="569" width="30" y="96" height="2" fill="#f4c49f"/><rect class="cbfill" style="stroke: none;" x="569" width="30" y="96" height="2" fill="#f5c39e"/><rect class="cbfill" style="stroke: none;" x="569" width="30" y="95" height="2" fill="#f5c39d"/><rect class="cbfill" style="stroke: none;" x="569" width="30" y="95" height="2" fill="#f5c29c"/><rect class="cbfill" style="stroke: none;" x="569" width="30" y="95" height="2" fill="#f5c19b"/><rect class="cbfill" style="stroke: none;" x="569" width="30" y="94" height="2" fill="#f5c19a"/><rect class="cbfill" style="stroke: none;" x="569" width="30" y="94" height="2" fill="#f5c099"/><rect class="cbfill" style="stroke: none;" x="569" width="30" y="93" height="2" fill="#f5bf98"/><rect class="cbfill" style="stroke: none;" x="569" width="30" y="93" height="2" fill="#f5bf97"/><rect class="cbfill" style="stroke: none;" x="569" width="30" y="92" height="2" fill="#f5be96"/><rect class="cbfill" style="stroke: none;" x="569" width="30" y="92" height="2" fill="#f5bd95"/><rect class="cbfill" style="stroke: none;" x="569" width="30" y="91" height="2" fill="#f5bd94"/><rect class="cbfill" style="stroke: none;" x="569" width="30" y="91" height="2" fill="#f5bc93"/><rect class="cbfill" style="stroke: none;" x="569" width="30" y="90" height="2" fill="#f5bb92"/><rect class="cbfill" style="stroke: none;" x="569" width="30" y="90" height="2" fill="#f5bb91"/><rect class="cbfill" style="stroke: none;" x="569" width="30" y="89" height="2" fill="#f5ba8f"/><rect class="cbfill" style="stroke: none;" x="569" width="30" y="89" height="2" fill="#f5b98e"/><rect class="cbfill" style="stroke: none;" x="569" width="30" y="88" height="2" fill="#f5b98d"/><rect class="cbfill" style="stroke: none;" x="569" width="30" y="88" height="2" fill="#f5b88c"/><rect class="cbfill" style="stroke: none;" x="569" width="30" y="87" height="2" fill="#f5b78b"/><rect class="cbfill" style="stroke: none;" x="569" width="30" y="87" height="2" fill="#f5b68a"/><rect class="cbfill" style="stroke: none;" x="569" width="30" y="86" height="2" fill="#f5b689"/><rect class="cbfill" style="stroke: none;" x="569" width="30" y="86" height="2" fill="#f5b588"/><rect class="cbfill" style="stroke: none;" x="569" width="30" y="85" height="2" fill="#f5b487"/><rect class="cbfill" style="stroke: none;" x="569" width="30" y="85" height="2" fill="#f5b486"/><rect class="cbfill" style="stroke: none;" x="569" width="30" y="85" height="2" fill="#f5b385"/><rect class="cbfill" style="stroke: none;" x="569" width="30" y="84" height="2" fill="#f5b284"/><rect class="cbfill" style="stroke: none;" x="569" width="30" y="84" height="2" fill="#f5b283"/><rect class="cbfill" style="stroke: none;" x="569" width="30" y="83" height="2" fill="#f5b182"/><rect class="cbfill" style="stroke: none;" x="569" width="30" y="83" height="2" fill="#f5b081"/><rect class="cbfill" style="stroke: none;" x="569" width="30" y="82" height="2" fill="#f5b080"/><rect class="cbfill" style="stroke: none;" x="569" width="30" y="82" height="2" fill="#f5af7f"/><rect class="cbfill" style="stroke: none;" x="569" width="30" y="81" height="2" fill="#f5ae7e"/><rect class="cbfill" style="stroke: none;" x="569" width="30" y="81" height="2" fill="#f5ae7d"/><rect class="cbfill" style="stroke: none;" x="569" width="30" y="80" height="2" fill="#f5ad7c"/><rect class="cbfill" style="stroke: none;" x="569" width="30" y="80" height="2" fill="#f5ac7b"/><rect class="cbfill" style="stroke: none;" x="569" width="30" y="79" height="2" fill="#f5ab7a"/><rect class="cbfill" style="stroke: none;" x="569" width="30" y="79" height="2" fill="#f5ab79"/><rect class="cbfill" style="stroke: none;" x="569" width="30" y="78" height="2" fill="#f5aa78"/><rect class="cbfill" style="stroke: none;" x="569" width="30" y="78" height="2" fill="#f5a977"/><rect class="cbfill" style="stroke: none;" x="569" width="30" y="77" height="2" fill="#f5a976"/><rect class="cbfill" style="stroke: none;" x="569" width="30" y="77" height="2" fill="#f5a875"/><rect class="cbfill" style="stroke: none;" x="569" width="30" y="76" height="2" fill="#f5a774"/><rect class="cbfill" style="stroke: none;" x="569" width="30" y="76" height="2" fill="#f5a773"/><rect class="cbfill" style="stroke: none;" x="569" width="30" y="75" height="2" fill="#f5a672"/><rect class="cbfill" style="stroke: none;" x="569" width="30" y="75" height="2" fill="#f5a571"/><rect class="cbfill" style="stroke: none;" x="569" width="30" y="75" height="2" fill="#f5a570"/><rect class="cbfill" style="stroke: none;" x="569" width="30" y="74" height="2" fill="#f5a46f"/><rect class="cbfill" style="stroke: none;" x="569" width="30" y="74" height="2" fill="#f5a36e"/><rect class="cbfill" style="stroke: none;" x="569" width="30" y="73" height="2" fill="#f5a26d"/><rect class="cbfill" style="stroke: none;" x="569" width="30" y="73" height="2" fill="#f5a26c"/><rect class="cbfill" style="stroke: none;" x="569" width="30" y="72" height="2" fill="#f5a16b"/><rect class="cbfill" style="stroke: none;" x="569" width="30" y="72" height="2" fill="#f5a06a"/><rect class="cbfill" style="stroke: none;" x="569" width="30" y="71" height="2" fill="#f5a069"/><rect class="cbfill" style="stroke: none;" x="569" width="30" y="71" height="2" fill="#f49f68"/><rect class="cbfill" style="stroke: none;" x="569" width="30" y="70" height="2" fill="#f49e68"/><rect class="cbfill" style="stroke: none;" x="569" width="30" y="70" height="2" fill="#f49d67"/><rect class="cbfill" style="stroke: none;" x="569" width="30" y="69" height="2" fill="#f39c67"/><rect class="cbfill" style="stroke: none;" x="569" width="30" y="69" height="2" fill="#f39b66"/><rect class="cbfill" style="stroke: none;" x="569" width="30" y="68" height="2" fill="#f29a66"/><rect class="cbfill" style="stroke: none;" x="569" width="30" y="68" height="2" fill="#f29965"/><rect class="cbfill" style="stroke: none;" x="569" width="30" y="67" height="2" fill="#f19865"/><rect class="cbfill" style="stroke: none;" x="569" width="30" y="67" height="2" fill="#f19764"/><rect class="cbfill" style="stroke: none;" x="569" width="30" y="66" height="2" fill="#f09664"/><rect class="cbfill" style="stroke: none;" x="569" width="30" y="66" height="2" fill="#f09563"/><rect class="cbfill" style="stroke: none;" x="569" width="30" y="65" height="2" fill="#f09463"/><rect class="cbfill" style="stroke: none;" x="569" width="30" y="65" height="2" fill="#ef9362"/><rect class="cbfill" style="stroke: none;" x="569" width="30" y="65" height="2" fill="#ef9262"/><rect class="cbfill" style="stroke: none;" x="569" width="30" y="64" height="2" fill="#ee9161"/><rect class="cbfill" style="stroke: none;" x="569" width="30" y="64" height="2" fill="#ee9061"/><rect class="cbfill" style="stroke: none;" x="569" width="30" y="63" height="2" fill="#ed8f60"/><rect class="cbfill" style="stroke: none;" x="569" width="30" y="63" height="2" fill="#ed8e60"/><rect class="cbfill" style="stroke: none;" x="569" width="30" y="62" height="2" fill="#ec8d5f"/><rect class="cbfill" style="stroke: none;" x="569" width="30" y="62" height="2" fill="#ec8c5f"/><rect class="cbfill" style="stroke: none;" x="569" width="30" y="61" height="2" fill="#ec8b5e"/><rect class="cbfill" style="stroke: none;" x="569" width="30" y="61" height="2" fill="#eb8a5e"/><rect class="cbfill" style="stroke: none;" x="569" width="30" y="60" height="2" fill="#eb895d"/><rect class="cbfill" style="stroke: none;" x="569" width="30" y="60" height="2" fill="#ea885d"/><rect class="cbfill" style="stroke: none;" x="569" width="30" y="59" height="2" fill="#ea875c"/><rect class="cbfill" style="stroke: none;" x="569" width="30" y="59" height="2" fill="#e9865c"/><rect class="cbfill" style="stroke: none;" x="569" width="30" y="58" height="2" fill="#e9855b"/><rect class="cbfill" style="stroke: none;" x="569" width="30" y="58" height="2" fill="#e9845b"/><rect class="cbfill" style="stroke: none;" x="569" width="30" y="57" height="2" fill="#e8835a"/><rect class="cbfill" style="stroke: none;" x="569" width="30" y="57" height="2" fill="#e8825a"/><rect class="cbfill" style="stroke: none;" x="569" width="30" y="56" height="2" fill="#e78159"/><rect class="cbfill" style="stroke: none;" x="569" width="30" y="56" height="2" fill="#e78059"/><rect class="cbfill" style="stroke: none;" x="569" width="30" y="55" height="2" fill="#e67f58"/><rect class="cbfill" style="stroke: none;" x="569" width="30" y="55" height="2" fill="#e67e58"/><rect class="cbfill" style="stroke: none;" x="569" width="30" y="55" height="2" fill="#e57d57"/><rect class="cbfill" style="stroke: none;" x="569" width="30" y="54" height="2" fill="#e57c57"/><rect class="cbfill" style="stroke: none;" x="569" width="30" y="54" height="2" fill="#e57b56"/><rect class="cbfill" style="stroke: none;" x="569" width="30" y="53" height="2" fill="#e47a56"/><rect class="cbfill" style="stroke: none;" x="569" width="30" y="53" height="2" fill="#e47955"/><rect class="cbfill" style="stroke: none;" x="569" width="30" y="52" height="2" fill="#e37855"/><rect class="cbfill" style="stroke: none;" x="569" width="30" y="52" height="2" fill="#e37754"/><rect class="cbfill" style="stroke: none;" x="569" width="30" y="51" height="2" fill="#e27654"/><rect class="cbfill" style="stroke: none;" x="569" width="30" y="51" height="2" fill="#e27553"/><rect class="cbfill" style="stroke: none;" x="569" width="30" y="50" height="2" fill="#e17453"/><rect class="cbfill" style="stroke: none;" x="569" width="30" y="50" height="2" fill="#e17352"/><rect class="cbfill" style="stroke: none;" x="569" width="30" y="49" height="2" fill="#e17252"/><rect class="cbfill" style="stroke: none;" x="569" width="30" y="49" height="2" fill="#e07151"/><rect class="cbfill" style="stroke: none;" x="569" width="30" y="48" height="2" fill="#e07051"/><rect class="cbfill" style="stroke: none;" x="569" width="30" y="48" height="2" fill="#df6f50"/><rect class="cbfill" style="stroke: none;" x="569" width="30" y="47" height="2" fill="#df6e50"/><rect class="cbfill" style="stroke: none;" x="569" width="30" y="47" height="2" fill="#de6d4f"/><rect class="cbfill" style="stroke: none;" x="569" width="30" y="46" height="2" fill="#de6c4f"/><rect class="cbfill" style="stroke: none;" x="569" width="30" y="46" height="2" fill="#de6b4e"/><rect class="cbfill" style="stroke: none;" x="569" width="30" y="45" height="2" fill="#dd6a4e"/><rect class="cbfill" style="stroke: none;" x="569" width="30" y="45" height="2" fill="#dd694d"/><rect class="cbfill" style="stroke: none;" x="569" width="30" y="44" height="2" fill="#dc684d"/><rect class="cbfill" style="stroke: none;" x="569" width="30" y="44" height="2" fill="#dc684c"/><rect class="cbfill" style="stroke: none;" x="569" width="30" y="44" height="2" fill="#db674b"/><rect class="cbfill" style="stroke: none;" x="569" width="30" y="43" height="2" fill="#db664b"/><rect class="cbfill" style="stroke: none;" x="569" width="30" y="43" height="2" fill="#da654a"/><rect class="cbfill" style="stroke: none;" x="569" width="30" y="42" height="2" fill="#da644a"/><rect class="cbfill" style="stroke: none;" x="569" width="30" y="42" height="2" fill="#da6349"/><rect class="cbfill" style="stroke: none;" x="569" width="30" y="41" height="2" fill="#d96249"/><rect class="cbfill" style="stroke: none;" x="569" width="30" y="41" height="2" fill="#d96148"/><rect class="cbfill" style="stroke: none;" x="569" width="30" y="40" height="2" fill="#d86048"/><rect class="cbfill" style="stroke: none;" x="569" width="30" y="40" height="2" fill="#d85f47"/><rect class="cbfill" style="stroke: none;" x="569" width="30" y="39" height="2" fill="#d75e47"/><rect class="cbfill" style="stroke: none;" x="569" width="30" y="39" height="2" fill="#d75d46"/><rect class="cbfill" style="stroke: none;" x="569" width="30" y="38" height="2" fill="#d65c46"/><rect class="cbfill" style="stroke: none;" x="569" width="30" y="38" height="2" fill="#d65b45"/><rect class="cbfill" style="stroke: none;" x="569" width="30" y="37" height="2" fill="#d65a45"/><rect class="cbfill" style="stroke: none;" x="569" width="30" y="37" height="2" fill="#d55944"/><rect class="cbfill" style="stroke: none;" x="569" width="30" y="36" height="2" fill="#d55844"/><rect class="cbfill" style="stroke: none;" x="569" width="30" y="36" height="2" fill="#d45743"/><rect class="cbfill" style="stroke: none;" x="569" width="30" y="35" height="2" fill="#d45643"/><rect class="cbfill" style="stroke: none;" x="569" width="30" y="35" height="2" fill="#d35542"/><rect class="cbfill" style="stroke: none;" x="569" width="30" y="34" height="2" fill="#d35442"/><rect class="cbfill" style="stroke: none;" x="569" width="30" y="34" height="2" fill="#d35341"/><rect class="cbfill" style="stroke: none;" x="569" width="30" y="34" height="2" fill="#d25241"/><rect class="cbfill" style="stroke: none;" x="569" width="30" y="33" height="2" fill="#d25140"/><rect class="cbfill" style="stroke: none;" x="569" width="30" y="33" height="2" fill="#d15040"/><rect class="cbfill" style="stroke: none;" x="569" width="30" y="32" height="2" fill="#d14f3f"/><rect class="cbfill" style="stroke: none;" x="569" width="30" y="32" height="2" fill="#d04e3f"/><rect class="cbfill" style="stroke: none;" x="569" width="30" y="31" height="2" fill="#d04d3e"/><rect class="cbfill" style="stroke: none;" x="569" width="30" y="31" height="2" fill="#cf4c3e"/><rect class="cbfill" style="stroke: none;" x="569" width="30" y="30" height="2" fill="#cf4b3d"/><rect class="cbfill" style="stroke: none;" x="569" width="30" y="30" height="2" fill="#cf4a3d"/><rect class="cbfill" style="stroke: none;" x="569" width="30" y="29" height="2" fill="#ce493c"/><rect class="cbfill" style="stroke: none;" x="569" width="30" y="29" height="2" fill="#ce483c"/><rect class="cbfill" style="stroke: none;" x="569" width="30" y="28" height="2" fill="#cd473b"/><rect class="cbfill" style="stroke: none;" x="569" width="30" y="28" height="2" fill="#cd463b"/><rect class="cbfill" style="stroke: none;" x="569" width="30" y="27" height="2" fill="#cc453a"/><rect class="cbfill" style="stroke: none;" x="569" width="30" y="27" height="2" fill="#cc443a"/><rect class="cbfill" style="stroke: none;" x="569" width="30" y="26" height="2" fill="#cb4339"/><rect class="cbfill" style="stroke: none;" x="569" width="30" y="26" height="2" fill="#cb4239"/><rect class="cbfill" style="stroke: none;" x="569" width="30" y="25" height="2" fill="#cb4138"/><rect class="cbfill" style="stroke: none;" x="569" width="30" y="25" height="2" fill="#ca4038"/><rect class="cbfill" style="stroke: none;" x="569" width="30" y="24" height="2" fill="#ca3f37"/><rect class="cbfill" style="stroke: none;" x="569" width="30" y="24" height="2" fill="#c93e37"/><rect class="cbfill" style="stroke: none;" x="569" width="30" y="24" height="2" fill="#c93d36"/><rect class="cbfill" style="stroke: none;" x="569" width="30" y="23" height="2" fill="#c83c36"/><rect class="cbfill" style="stroke: none;" x="569" width="30" y="23" height="2" fill="#c83b35"/><rect class="cbfill" style="stroke: none;" x="569" width="30" y="22" height="2" fill="#c83a35"/><rect class="cbfill" style="stroke: none;" x="569" width="30" y="22" height="2" fill="#c73934"/><rect class="cbfill" style="stroke: none;" x="569" width="30" y="21" height="2" fill="#c73834"/><rect class="cbfill" style="stroke: none;" x="569" width="30" y="21" height="2" fill="#c63733"/><rect class="cbfill" style="stroke: none;" x="569" width="30" y="20" height="2" fill="#c63633"/><rect class="cbfill" style="stroke: none;" x="569" width="30" y="20" height="2" fill="#c53532"/><rect class="cbfill" style="stroke: none;" x="569" width="30" y="19" height="2" fill="#c53432"/><rect class="cbfill" style="stroke: none;" x="569" width="30" y="19" height="2" fill="#c43331"/><rect class="cbfill" style="stroke: none;" x="569" width="30" y="18" height="2" fill="#c43231"/><rect class="cbfill" style="stroke: none;" x="569" width="30" y="18" height="2" fill="#c43130"/><rect class="cbfill" style="stroke: none;" x="569" width="30" y="17" height="2" fill="#c33030"/><rect class="cbfill" style="stroke: none;" x="569" width="30" y="17" height="2" fill="#c32f2f"/><rect class="cbfill" style="stroke: none;" x="569" width="30" y="16" height="2" fill="#c22e2f"/><rect class="cbfill" style="stroke: none;" x="569" width="30" y="16" height="2" fill="#c22d2e"/><rect class="cbfill" style="stroke: none;" x="569" width="30" y="15" height="2" fill="#c12c2e"/><rect class="cbfill" style="stroke: none;" x="569" width="30" y="15" height="2" fill="#c12b2d"/><rect class="cbfill" style="stroke: none;" x="569" width="30" y="14" height="2" fill="#c12a2d"/><rect class="cbfill" style="stroke: none;" x="569" width="30" y="14" height="2" fill="#c0292c"/><rect class="cbfill" style="stroke: none;" x="569" width="30" y="14" height="2" fill="#c0292c"/><rect class="cbfill" style="stroke: none;" x="569" width="30" y="13" height="2" fill="#bf282b"/><rect class="cbfill" style="stroke: none;" x="569" width="30" y="13" height="2" fill="#bf272b"/><rect class="cbfill" style="stroke: none;" x="569" width="30" y="12" height="2" fill="#be262a"/><rect class="cbfill" style="stroke: none;" x="569" width="30" y="12" height="2" fill="#be252a"/><rect class="cbfill" style="stroke: none;" x="569" width="30" y="11" height="2" fill="#bd2429"/><rect class="cbfill" style="stroke: none;" x="569" width="30" y="11" height="2" fill="#bd2329"/><rect class="cbfill" style="stroke: none;" x="569" width="30" y="10" height="2" fill="#bd2228"/><rect class="cbfill" style="stroke: none;" x="569" width="30" y="10" height="2" fill="#bc2128"/><rect class="cbfill" style="stroke: none;" x="569" width="30" y="9" height="2" fill="#bc2027"/><rect class="cbfill" style="stroke: none;" x="569" width="30" y="9" height="2" fill="#bb1f27"/><rect class="cbfill" style="stroke: none;" x="569" width="30" y="8" height="2" fill="#bb1e26"/><rect class="cbfill" style="stroke: none;" x="569" width="30" y="8" height="2" fill="#ba1d26"/><rect class="cbfill" style="stroke: none;" x="569" width="30" y="7" height="2" fill="#ba1c25"/><rect class="cbfill" style="stroke: none;" x="569" width="30" y="7" height="2" fill="#b91b25"/><rect class="cbfill" style="stroke: none;" x="569" width="30" y="6" height="2" fill="#b91a24"/><rect class="cbfill" style="stroke: none;" x="569" width="30" y="6" height="2" fill="#b91924"/><rect class="cbfill" style="stroke: none;" x="569" width="30" y="5" height="2" fill="#b81823"/><rect class="cbfill" style="stroke: none;" x="569" width="30" y="5" height="2" fill="#b81723"/><rect class="cbfill" style="stroke: none;" x="569" width="30" y="4" height="2" fill="#b71622"/><rect class="cbfill" style="stroke: none;" x="569" width="30" y="4" height="2" fill="#b71522"/><rect class="cbfill" style="stroke: none;" x="569" width="30" y="4" height="2" fill="#b61421"/><rect class="cbfill" style="stroke: none;" x="569" width="30" y="3" height="2" fill="#b61321"/><rect class="cbfill" style="stroke: none;" x="569" width="30" y="3" height="2" fill="#b61220"/><rect class="cbfill" style="stroke: none;" x="569" width="30" y="2" height="2" fill="#b51120"/><rect class="cbfill" style="stroke: none;" x="569" width="30" y="2" height="2" fill="#b5101f"/><rect class="cbfill" style="stroke: none;" x="569" width="30" y="1" height="2" fill="#b40f1f"/><rect class="cbfill" style="stroke: none;" x="569" width="30" y="1" height="2" fill="#b40e1e"/><rect class="cbfill" style="stroke: none;" x="569" width="30" y="0" height="2" fill="#b30d1e"/><rect class="cbfill" style="stroke: none;" x="569" width="30" y="0" height="2" fill="#b30c1d"/><rect class="cbfill" style="stroke: none;" x="569" width="30" y="-1" height="2" fill="#b20b1d"/><rect class="cbfill" style="stroke: none;" x="569" width="30" y="0" height="2" fill="#b20a1c"/></g><g class="cblines" transform="translate(0,39)"/><g class="cbaxis crisp" transform="translate(0,39)" data-bb="376"><g class="ycbd7cf46tick"><text text-anchor="start" x="601" y="9" style="font-family: TOBESTRIPPEDOpen SansTOBESTRIPPED,verdana,arial,sans-serif; font-size: 18px; fill: rgb(68, 68, 68); fill-opacity: 1; visibility: visible; white-space: pre;" transform="translate(0,88.79)">5k</text></g><g class="ycbd7cf46tick"><text text-anchor="start" x="601" y="9" style="font-family: TOBESTRIPPEDOpen SansTOBESTRIPPED,verdana,arial,sans-serif; font-size: 18px; fill: rgb(68, 68, 68); fill-opacity: 1; visibility: visible; white-space: pre;" transform="translate(0,52.6)">10k</text></g><g class="ycbd7cf46tick"><text text-anchor="start" x="601" y="9" style="font-family: TOBESTRIPPEDOpen SansTOBESTRIPPED,verdana,arial,sans-serif; font-size: 18px; fill: rgb(68, 68, 68); fill-opacity: 1; visibility: visible; white-space: pre;" transform="translate(0,16.4)">15k</text></g></g><g class="cbtitleunshift" transform="translate(-100,-100)" data-bb="377"><g class="cbtitle" transform="translate(-0.5,-0.5)" data-bb="375"><text class="ycbd7cf46title" style="font-family: TOBESTRIPPEDOpen SansTOBESTRIPPED,verdana,arial,sans-serif; font-size: 18px; fill: rgb(68, 68, 68); opacity: 1; font-weight: normal; white-space: pre; visibility: visible;" x="668.9599999999999" y="126.5" text-anchor="start">Sample size</text></g></g><rect class="cboutline" x="569" y="39" width="30" height="121" style="stroke: rgb(68, 68, 68); stroke-opacity: 1; fill: none; stroke-width: 1;"/></g></g></svg>